<?xml version="1.0" standalone="no"?>
<!DOCTYPE svg PUBLIC "-//W3C//DTD SVG 20010904//EN"
 "http://www.w3.org/TR/2001/REC-SVG-20010904/DTD/svg10.dtd">
<svg version="1.0" xmlns="http://www.w3.org/2000/svg"
 width="408.000000pt" height="363.000000pt" viewBox="0 0 408.000000 363.000000"
 preserveAspectRatio="xMidYMid meet">

<g transform="translate(0.000000,363.000000) scale(0.100000,-0.100000)"
fill="#000000" stroke="none">
<path d="M1945 3296 c-237 -194 -293 -234 -349 -250 -33 -10 -98 -34 -146 -55
l-87 -37 -73 47 -74 47 -36 94 c-33 87 -37 93 -66 96 -28 3 -35 -3 -83 -77
l-53 -80 -81 -27 c-95 -31 -107 -39 -107 -69 0 -16 21 -37 78 -78 76 -55 78
-58 98 -124 l20 -68 -89 -87 -90 -87 -66 36 c-36 20 -99 53 -138 75 -92 50
-111 47 -141 -15 -65 -135 -43 -301 54 -417 l28 -32 -40 -37 c-22 -20 -79 -71
-126 -114 -82 -73 -87 -80 -98 -134 -16 -76 -8 -236 14 -290 12 -29 31 -50 59
-67 68 -41 75 -50 82 -97 l7 -46 -154 -100 c-84 -55 -159 -107 -166 -115 -24
-30 1 -51 146 -121 l145 -70 -66 -64 c-65 -61 -81 -93 -54 -110 6 -4 117 -36
246 -70 129 -35 237 -67 240 -72 3 -6 31 -93 61 -195 63 -216 46 -198 239
-248 108 -29 128 -31 306 -32 178 0 196 1 290 27 163 45 389 170 550 304 45
37 72 51 105 57 25 3 61 9 80 12 29 5 33 4 23 -7 -19 -19 -16 -57 5 -68 10 -5
55 -16 100 -24 81 -14 83 -15 151 -81 38 -36 76 -66 84 -66 27 0 44 27 51 82
14 107 25 133 80 187 l53 52 19 -98 c23 -125 35 -138 132 -148 160 -16 320 35
429 136 71 65 69 46 17 267 l-47 200 60 58 c75 75 118 145 104 172 -5 10 -16
24 -24 30 -11 10 -9 25 15 97 16 48 32 109 35 137 3 27 11 52 17 54 6 2 57 10
114 18 57 8 110 21 119 28 12 9 14 24 9 66 -13 112 -100 233 -202 280 l-49 23
-38 117 c-59 185 -159 359 -280 488 -32 35 -57 64 -54 64 3 0 53 -22 112 -50
59 -27 115 -50 125 -50 42 0 43 17 26 278 -14 209 -19 249 -34 260 -9 7 -24
11 -32 9 -8 -2 -108 -63 -222 -135 l-207 -130 -98 54 c-163 90 -322 148 -518
189 -68 14 -109 33 -272 126 -106 60 -201 109 -210 109 -10 -1 -36 -16 -58
-34z m398 -238 c177 -100 470 -266 650 -369 l328 -187 -96 -77 -97 -77 -117
113 c-113 109 -123 116 -391 272 -151 88 -339 198 -417 243 -78 46 -149 84
-157 84 -8 0 -21 -6 -28 -13 -7 -7 -58 -48 -113 -90 -55 -43 -108 -85 -117
-93 -33 -26 -22 -60 30 -90 47 -27 128 -78 557 -344 127 -79 242 -148 257
-154 24 -9 33 -4 97 48 39 31 71 53 71 49 0 -4 -23 -75 -51 -157 -34 -98 -49
-158 -46 -176 6 -25 -7 -37 -179 -171 -102 -79 -189 -143 -192 -143 -7 2 -309
94 -623 190 -97 30 -185 54 -197 54 -13 0 -70 -45 -149 -117 -127 -117 -299
-272 -339 -306 -21 -17 -25 -14 -225 115 -112 73 -253 165 -312 204 l-109 71
116 101 115 101 46 -20 c171 -75 391 7 479 179 25 49 13 68 -71 111 l-76 38
224 174 c312 244 419 328 614 482 94 75 176 136 183 136 7 1 158 -81 335 -181z
m-1216 0 c15 -39 32 -62 64 -87 24 -18 45 -37 47 -41 2 -5 -20 -16 -47 -25
-39 -12 -60 -28 -88 -63 -20 -26 -40 -51 -44 -55 -4 -5 -16 20 -28 55 -18 53
-28 68 -66 93 -25 17 -45 33 -45 36 0 3 25 13 55 23 48 15 60 24 88 66 18 27
35 50 38 50 4 0 15 -24 26 -52z m2383 -80 c1 -18 5 -94 10 -168 4 -74 7 -136
6 -138 -2 -1 -74 32 -161 73 -87 42 -155 78 -152 82 12 12 282 182 290 183 4
0 7 -15 7 -32z m-645 -77 c48 -22 124 -63 169 -91 89 -55 250 -179 242 -187
-3 -3 -78 37 -168 89 -90 52 -226 130 -303 173 -77 43 -147 84 -155 92 -21 19
112 -28 215 -76z m-657 -18 c81 -47 253 -148 382 -223 129 -76 236 -142 237
-147 2 -5 -38 -42 -89 -83 l-91 -73 -46 26 c-25 14 -120 72 -211 129 -91 57
-243 150 -337 208 -95 58 -172 108 -173 112 0 8 162 138 173 138 4 0 74 -39
155 -87z m-753 28 c-6 -5 -89 -70 -185 -145 -96 -75 -214 -168 -263 -207 -65
-52 -92 -69 -107 -64 -11 4 -20 10 -20 14 0 15 135 138 160 146 14 4 37 22 52
40 33 40 140 111 263 177 86 45 121 59 100 39z m-620 -471 c28 -14 87 -46 133
-70 45 -24 82 -49 82 -55 0 -25 -65 -86 -122 -114 -110 -55 -235 -38 -327 45
-67 60 -95 127 -95 224 0 41 5 88 12 103 l12 29 128 -68 c70 -37 150 -79 177
-94z m2613 -17 c58 -85 126 -227 155 -319 l25 -81 -65 -6 c-75 -7 -169 -47
-209 -88 -15 -16 -31 -29 -35 -29 -8 0 -49 170 -49 198 1 9 30 38 65 65 l65
47 0 135 c0 74 2 135 5 135 2 0 22 -26 43 -57z m-498 -33 c-19 -12 -60 -13
-60 -1 0 5 5 22 10 37 l11 28 27 -27 c23 -23 25 -29 12 -37z m380 -4 c0 -3
-31 -27 -70 -55 -86 -63 -93 -54 -7 11 57 43 77 54 77 44z m-245 -106 c58 -59
59 -60 40 -80 -10 -11 -46 -34 -80 -50 -101 -48 -264 -79 -253 -47 3 6 19 55
37 107 l31 95 48 0 c26 1 61 8 77 17 17 9 32 16 35 17 3 1 32 -26 65 -59z
m240 42 c-39 -33 -97 -74 -101 -70 -6 6 86 78 100 78 6 0 6 -3 1 -8z m4 -55
c-44 -35 -81 -59 -84 -55 -3 2 14 18 38 35 23 17 44 29 46 27 2 -2 2 -5 0 -7z
m-113 -294 c38 -160 42 -189 26 -205 -10 -10 -97 336 -88 351 16 26 26 2 62
-146z m-46 -279 l93 -375 -18 -40 c-10 -22 -22 -36 -25 -32 -4 4 -19 60 -34
123 -14 63 -46 201 -71 305 -94 395 -90 376 -74 386 8 5 19 9 25 9 7 0 50
-156 104 -376z m-177 161 c20 -82 53 -220 73 -305 20 -85 51 -218 70 -295 18
-77 31 -141 30 -143 -2 -1 -22 0 -45 4 -49 8 -34 -44 -135 474 -43 217 -80
403 -82 412 -5 19 37 31 47 13 4 -5 23 -77 42 -160z m-147 40 c12 -61 31 -156
43 -212 26 -124 26 -135 4 -131 -13 2 -24 41 -54 188 -53 266 -54 272 -33 268
14 -2 22 -27 40 -113z m831 30 c60 -18 118 -61 155 -117 25 -36 52 -107 45
-115 -4 -4 -255 -39 -412 -58 -71 -9 -139 -18 -149 -22 -18 -5 -19 -1 -14 59
7 80 33 133 97 190 80 72 175 94 278 63z m-952 -14 c-28 -27 -281 -219 -284
-215 -2 2 9 14 25 26 15 13 78 62 139 110 60 48 114 87 120 88 5 0 5 -3 0 -9z
m-815 -137 c190 -58 478 -146 640 -195 162 -50 303 -93 314 -97 15 -7 -1 -23
-93 -97 -62 -50 -117 -89 -124 -88 -7 1 -57 14 -112 28 -182 46 -306 58 -555
52 -226 -5 -255 -9 -393 -53 -53 -18 -73 -53 -44 -81 15 -15 26 -14 126 11 60
15 151 32 202 38 112 12 349 4 469 -17 123 -21 221 -46 218 -55 -2 -4 -160
-137 -353 -296 -192 -158 -382 -314 -421 -346 l-72 -59 -303 81 c-167 45 -389
104 -494 131 -104 28 -260 69 -345 91 -85 23 -158 44 -162 48 -5 3 11 25 35
48 l43 43 59 -27 c80 -37 89 -30 95 79 l5 85 85 78 c124 113 141 128 414 373
137 123 276 250 310 282 50 48 66 58 86 53 14 -2 180 -52 370 -110z m805 70
c-66 -55 -216 -166 -220 -162 -5 5 228 187 240 187 6 0 -3 -11 -20 -25z
m-2356 -81 c-2 -88 -2 -88 -12 -36 -8 46 -3 123 8 123 3 0 4 -39 4 -87z m328
-118 c134 -86 246 -161 249 -167 9 -14 17 -19 -280 172 -141 91 -256 169 -256
174 0 5 10 1 23 -7 12 -9 131 -86 264 -172z m2063 170 c0 -8 -201 -157 -206
-153 -4 5 186 156 199 157 4 1 7 -1 7 -4z m-2087 -210 c135 -87 244 -161 242
-163 -4 -5 -447 278 -488 311 -51 42 13 3 246 -148z m0 -54 c114 -74 205 -136
203 -139 -7 -6 -466 291 -466 301 0 5 13 1 28 -10 16 -10 122 -78 235 -152z
m2114 97 c6 -29 10 -54 8 -56 -5 -6 -115 29 -115 36 1 7 81 70 91 71 3 1 10
-23 16 -51z m-2165 -119 c219 -142 231 -150 224 -156 -4 -4 -63 33 -308 193
-113 74 -140 94 -124 94 3 0 96 -59 208 -131z m3020 20 c-5 -36 -52 -189 -58
-189 -3 0 -29 20 -57 45 -34 29 -61 45 -79 45 -23 0 -27 5 -36 47 -6 26 -10
49 -9 49 4 4 222 31 232 29 6 -1 9 -13 7 -26z m-306 -70 c15 -64 18 -107 5
-93 -7 8 -41 131 -41 149 0 4 5 5 12 3 6 -2 17 -29 24 -59z m-360 -189 c14
-67 23 -124 20 -127 -8 -8 -45 17 -50 34 -2 10 -12 58 -21 108 -16 84 -15 90
1 102 10 7 19 11 22 9 2 -2 15 -59 28 -126z m-2422 13 c3 -38 9 -119 12 -181
l7 -114 -43 22 c-24 12 -99 49 -168 81 l-125 59 149 99 c82 55 152 100 155
100 4 1 9 -29 13 -66z m142 30 l55 -37 -50 -50 c-28 -27 -53 -48 -55 -45 -8 8
-20 169 -12 169 3 0 31 -17 62 -37z m2860 -44 c3 -5 -15 -34 -40 -64 -49 -56
-56 -78 -30 -93 37 -21 -90 -68 -151 -56 -58 11 -70 58 -36 137 11 25 25 48
31 52 9 6 9 2 0 -15 -10 -18 -9 -25 4 -38 15 -15 22 -11 88 55 l72 72 28 -20
c15 -11 30 -24 34 -30z m-702 -23 c7 -35 6 -38 -11 -31 -10 4 -30 12 -45 17
-36 13 -35 21 4 52 36 28 41 25 52 -38z m-180 -151 c5 -27 2 -38 -19 -59 -19
-19 -25 -35 -25 -69 0 -33 -5 -48 -20 -58 -14 -11 -23 -38 -35 -109 -9 -52
-20 -99 -25 -104 -11 -11 -143 -46 -149 -40 -2 2 35 44 82 94 56 57 87 97 87
111 0 12 -16 55 -35 96 -19 41 -35 76 -35 78 0 3 33 32 73 65 79 65 88 65 101
-5z m155 15 l59 -29 26 -138 c15 -76 29 -149 33 -162 l6 -24 -74 7 c-87 9 -99
14 -67 30 21 10 23 19 26 91 4 101 -8 145 -48 167 -17 10 -30 25 -30 37 0 11
-3 26 -6 35 -9 23 9 20 75 -14z m192 -89 c6 -5 89 -393 93 -429 0 -8 -9 -21
-21 -29 -19 -13 -24 -13 -27 -2 -3 8 -25 119 -49 247 -42 225 -43 232 -23 226
12 -3 24 -9 27 -13z m178 -37 c4 -4 81 -322 81 -336 0 -3 -20 -13 -45 -21 -53
-18 -43 -38 -85 178 -17 88 -34 168 -37 179 -4 16 -1 17 38 11 24 -4 46 -9 48
-11z m-441 -62 c3 -60 2 -62 -22 -62 -22 0 -24 4 -28 56 -3 57 6 77 32 72 11
-2 16 -19 18 -66z m590 54 c5 -6 71 -276 72 -293 0 -8 -13 -13 -35 -13 -24 0
-35 5 -35 15 0 13 -53 243 -67 289 -5 17 -1 18 28 12 18 -3 34 -8 37 -10z
m130 -123 c30 -129 39 -183 27 -171 -5 5 -75 282 -75 298 0 5 4 10 8 10 5 0
23 -62 40 -137z m-1020 82 c12 -25 22 -54 22 -64 0 -27 -238 -254 -366 -349
-132 -98 -330 -203 -439 -232 -200 -52 -424 -45 -637 22 l-68 21 -26 86 c-14
47 -34 115 -45 150 -11 35 -17 66 -14 69 2 3 194 -46 425 -108 231 -61 427
-110 434 -107 13 5 222 175 551 449 72 59 132 108 136 108 3 0 15 -20 27 -45z
m248 -189 c42 -39 56 -45 106 -51 32 -4 58 -10 58 -14 0 -4 -20 -26 -44 -50
-36 -35 -46 -53 -51 -90 -10 -73 -16 -76 -63 -32 -32 30 -51 40 -89 46 -75 10
-78 16 -34 59 34 33 41 48 52 107 7 38 13 69 14 69 2 0 24 -20 51 -44z m759
-166 c-15 -16 -31 -20 -84 -20 -66 0 -136 -23 -172 -56 -10 -9 -30 -14 -46
-12 -28 3 -27 4 17 28 60 32 215 79 264 79 38 1 39 1 21 -19z"/>
</g>
</svg>
